<svg id="Layer_1" data-name="Layer 1" xmlns="http://www.w3.org/2000/svg" viewBox="0 0 120.23 100"><defs><style>.cls-1{fill:#c5c3c2;}.cls-2{fill:#444;}.cls-3{fill:#ccc;}.cls-4{fill:#fff;}.cls-5{fill:#111;}</style></defs><title>product-icon-framedprint</title><polygon class="cls-1" points="5.02 100 120.23 93.92 120.23 6.79 5.02 0 5.02 100"/><path class="cls-2" d="M57.89,57.32l103.22,6.07v75.79L57.89,144.62V57.32m-6-6.37V151l115.22-6.08V57.74L51.89,51Z" transform="translate(-46.87 -50.95)"/><polygon class="cls-3" points="11.02 93.67 114.24 88.23 114.24 12.44 11 6.31 11.02 93.67"/><path class="cls-4" d="M67.41,67.07l85.33,4.5V131.4l-85.32,3.66V66.91m-9.53-9.65v87.35l103.22-5.43V63.39L57.88,57.26Z" transform="translate(-46.87 -50.95)"/><polygon class="cls-5" points="0 98.85 0 2.27 5.02 0 5.02 100 0 98.85"/></svg>